<?xml version="1.0" encoding="utf-8"?>
<!-- Generator: Adobe Illustrator 16.0.0, SVG Export Plug-In . SVG Version: 6.00 Build 0)  -->
<!DOCTYPE svg PUBLIC "-//W3C//DTD SVG 1.1//EN" "http://www.w3.org/Graphics/SVG/1.1/DTD/svg11.dtd">
<svg version="1.1" id="Layer_1" xmlns="http://www.w3.org/2000/svg" xmlns:xlink="http://www.w3.org/1999/xlink" x="0px" y="0px"
	 width="417.6px" height="395px" viewBox="0 45.3 417.6 395" enable-background="new 0 45.3 417.6 395" xml:space="preserve">
<g>
	<circle cx="208.8" cy="177.697" r="47.606"/>
	<circle cx="315.705" cy="188.554" r="35.496"/>
	<path d="M386.279,307.988c-7.099-44.684-30.484-71.41-70.574-71.41c-15.451,0-27.979,3.759-38.419,11.275
		c1.253,1.253,2.506,2.506,4.176,3.759c17.122,17.956,28.814,43.848,34.243,76.838c0,1.253,0.418,2.506,0.418,3.341
		C354.96,332.208,389.203,325.527,386.279,307.988z"/>
	<circle cx="101.895" cy="188.554" r="35.496"/>
	<path d="M136.555,251.612c1.252-1.253,2.505-2.506,3.758-3.759c-10.44-7.517-23.386-11.275-38.419-11.275
		c-39.672,0-63.058,26.309-70.575,71.41c-2.923,17.539,31.738,24.221,70.575,24.221c0-1.253,0-2.506,0.417-3.341
		C107.323,295.877,119.016,269.986,136.555,251.612z"/>
	<path d="M208.8,363.111c-52.2,0-98.136-9.188-94.377-32.155c10.022-60.135,41.342-95.213,94.377-95.213
		s84.355,35.496,94.378,95.213C306.936,353.923,260.999,363.111,208.8,363.111z"/>
</g>
</svg>
