<?xml version="1.0" encoding="utf-8"?>
<!-- Generator: Adobe Illustrator 21.0.2, SVG Export Plug-In . SVG Version: 6.00 Build 0)  -->
<svg version="1.1" id="Layer_1" xmlns="http://www.w3.org/2000/svg" xmlns:xlink="http://www.w3.org/1999/xlink" x="0px" y="0px"
	 viewBox="0 0 24 24" style="enable-background:new 0 0 24 24;" xml:space="preserve">
<style type="text/css">
	.st0{fill:#757575;}
</style>
<path class="st0" d="M12,24C5.4,24,0,18.6,0,12S5.4,0,12,0s12,5.4,12,12S18.6,24,12,24z M12,2C6.5,2,2,6.5,2,12s4.5,10,10,10
	s10-4.5,10-10S17.5,2,12,2z M14.2,15.7l-2.9-2.9C11.1,12.6,11,12.3,11,12V7c0-0.6,0.4-1,1-1s1,0.4,1,1v4.5l2.7,2.7
	c0.4,0.4,0.4,1.1,0,1.5C15.3,16.1,14.6,16.1,14.2,15.7L14.2,15.7z"/>
</svg>
