<svg xmlns="http://www.w3.org/2000/svg" width="32.848" height="21.906" viewBox="0 0 32.848 21.906">
  <g id="Group_1143" data-name="Group 1143" transform="translate(0 0)">
    <path id="Path_1664" data-name="Path 1664" d="M4.931,27.058h26.45a3.2,3.2,0,0,0,3.2-3.2V8.351a3.2,3.2,0,0,0-3.2-3.2H4.931a3.2,3.2,0,0,0-3.2,3.2V23.859A3.2,3.2,0,0,0,4.931,27.058Zm0-19.816h26.45a1.115,1.115,0,0,1,1.016.664L18.2,16.6,3.934,7.868A1.1,1.1,0,0,1,4.931,7.242ZM31.38,24.968H4.931a1.11,1.11,0,0,1-1.108-1.108V10.249L17.651,18.72a1.06,1.06,0,0,0,1.091,0L32.49,10.3v13.56A1.11,1.11,0,0,1,31.38,24.968Z" transform="translate(-1.732 -5.152)" fill="#6a6a6a"/>
  </g>
</svg>
