<svg xmlns="http://www.w3.org/2000/svg" width="45.085" height="30.5" viewBox="0 0 45.085 30.5">
  <g id="noun_Email_2334116" transform="translate(-394.5 -184.9)">
    <g id="Group_3571" data-name="Group 3571" transform="translate(394.5 184.9)">
      <path id="Path_3669" data-name="Path 3669" d="M25.96,33.768a3.776,3.776,0,0,0,5.036,0l16.96-15.583a4.185,4.185,0,0,0-1.568-.285H10.568A4.185,4.185,0,0,0,9,18.185Z" transform="translate(-5.912 -17.9)" fill="#fff"/>
      <path id="Path_3670" data-name="Path 3670" d="M30.149,39.72a7.341,7.341,0,0,1-5.083,1.948,7.655,7.655,0,0,1-5.083-1.948L2.833,23.9A4.523,4.523,0,0,0,2.5,25.705V46.894a4.663,4.663,0,0,0,4.656,4.656H42.929a4.663,4.663,0,0,0,4.656-4.656V25.705a5.782,5.782,0,0,0-.333-1.805Z" transform="translate(-2.5 -21.05)" fill="#fff"/>
    </g>
  </g>
</svg>
