<svg xmlns="http://www.w3.org/2000/svg" width="24" height="36" viewBox="0 0 24 36">
  <g id="password" transform="translate(0 0)">
    <path id="Path_1476" data-name="Path 1476" d="M184.83,233.334a1.5,1.5,0,0,0-1.5,1.5v3a1.5,1.5,0,1,0,3,0v-3A1.5,1.5,0,0,0,184.83,233.334Z" transform="translate(-172.83 -212.334)" fill="#6a6a6a" fill-rule="evenodd"/>
    <g id="Group_416" data-name="Group 416" transform="translate(1.5)">
      <path id="Path_1477" data-name="Path 1477" d="M93.807,11.982h.052a11.384,11.384,0,0,1,1.447.1l.027,0V6a6,6,0,0,0-12,0v6h3V6a3,3,0,1,1,6,0v6.084l.025,0A11.379,11.379,0,0,1,93.807,11.982Z" transform="translate(-83.333)" fill="#6a6a6a"/>
    </g>
    <path id="Path_1478" data-name="Path 1478" d="M87.989,152.674c.18-.223.351-.454.515-.689.061-.087.122-.174.18-.263q.246-.374.466-.766c.043-.077.085-.155.126-.234.149-.281.289-.567.415-.86.025-.057.047-.116.071-.173.132-.32.255-.646.359-.979,0-.016.009-.032.014-.048a11.961,11.961,0,0,0,.531-3.53c0-.244-.02-.484-.034-.725-.012-.175-.017-.352-.036-.525-.029-.276-.069-.549-.116-.82-.03-.172-.068-.341-.105-.51q-.129-.583-.314-1.143c-.083-.253-.169-.505-.268-.751-.076-.188-.16-.373-.246-.556q-.143-.308-.3-.605c-.153-.286-.316-.566-.491-.838-.15-.233-.3-.464-.466-.685-.141-.189-.295-.368-.447-.548s-.292-.337-.445-.5-.3-.315-.452-.464c-.214-.2-.439-.4-.667-.583-.245-.2-.5-.392-.761-.574-.158-.111-.319-.22-.482-.323-.207-.13-.416-.256-.63-.373-.251-.137-.51-.261-.771-.38-.285-.13-.576-.248-.873-.356-.237-.086-.477-.168-.721-.239s-.464-.135-.7-.189c-.1-.023-.209-.041-.314-.062-.284-.057-.568-.112-.858-.148v-.015l-.027,0a11.381,11.381,0,0,0-1.447-.1H78.64a11.382,11.382,0,0,0-1.448.1l-.026,0v.015c-.29.036-.574.091-.857.148-.105.021-.212.039-.316.062-.238.054-.47.121-.7.189s-.479.152-.714.237c-.3.11-.6.23-.889.363-.256.117-.51.238-.756.372-.215.117-.425.244-.632.374-.166.1-.328.214-.488.327-.257.179-.508.366-.749.565s-.459.384-.675.591c-.157.149-.3.308-.452.465s-.3.329-.445.5-.3.357-.444.545c-.173.232-.334.474-.49.719-.167.261-.322.53-.469.8q-.16.3-.3.605c-.086.184-.17.369-.247.558-.1.243-.183.493-.266.744a11.9,11.9,0,0,0-.316,1.151c-.037.169-.075.337-.1.509-.047.271-.087.544-.116.821-.019.171-.023.346-.035.518-.015.243-.034.484-.034.73,0,.276.023.545.041.817.011.167.017.336.035.5.033.3.08.587.134.876.031.168.067.335.106.5.067.29.134.579.222.861.016.051.038.1.054.151a11.921,11.921,0,0,0,.725,1.734c.068.133.134.266.206.4q.216.386.458.754c.08.121.166.238.25.356a12.09,12.09,0,0,0,1.271,1.52l.017.018c.211.212.437.409.664.6.114.1.228.195.345.288.23.184.465.363.709.53.105.072.216.136.324.205a11.938,11.938,0,0,0,2.7,1.287c.092.03.184.062.277.09q.457.138.928.239c.1.022.207.04.311.06.326.061.655.117.99.152l.037,0c.392.039.79.06,1.192.06.218,0,.431-.021.646-.033.251-.014.5-.026.749-.055s.519-.072.775-.119.515-.108.769-.172.511-.13.76-.21c.379-.124.75-.265,1.112-.424.182-.08.358-.17.535-.258q.427-.215.834-.461c.169-.1.343-.2.506-.308l.061-.043a12.077,12.077,0,0,0,1.552-1.269c.077-.074.158-.145.233-.221.2-.2.387-.414.572-.629C87.843,152.846,87.918,152.762,87.989,152.674Zm-9.323,1.487a9.028,9.028,0,1,1,9.027-9.028A9.037,9.037,0,0,1,78.666,154.161Z" transform="translate(-66.666 -121.136)" fill="#6a6a6a"/>
  </g>
</svg>
