<svg xmlns="http://www.w3.org/2000/svg" width="200" height="200" viewBox="0 0 200 200">
  <path id="Path_92" data-name="Path 92" d="M200,0h-.236l-8.1,8.1-8.1-8.1H183.1L175,8.1,166.9,0h-.471l-8.1,8.1-8.1-8.1h-.471l-8.1,8.1-8.1-8.1H133.1L125,8.1,116.9,0h-.471l-8.1,8.1-8.1-8.1h-.471l-8.1,8.1L83.569,0H83.1L75,8.1,66.9,0h-.471l-8.1,8.1L50.236,0h-.471l-8.1,8.1L33.569,0H33.1L25,8.1,16.9,0h-.471l-8.1,8.1L.236,0H0V.236l8.1,8.1L0,16.431V33.569l8.1,8.1L0,49.764V66.9L8.1,75,0,83.1v17.138l8.1,8.1-8.1,8.1v17.138l8.1,8.1-8.1,8.1V166.9L8.1,175,0,183.1V200H.236l-.069-.069v-16.2L8.1,191.667,16.431,200H16.9l8.333-8.333,7.931-7.931v16.2L33.1,200h.471l-.069-.069v-16.2l7.931,7.931L49.764,200h.471l8.333-8.333,7.931-7.931v16.2l-.069.069H66.9l-.069-.069v-16.2l7.931,7.931L83.1,200h.471l8.333-8.333,7.931-7.931v16.2l-.069.069h.471l-.069-.069v-16.2l7.931,7.931L116.431,200h.471l8.333-8.333,7.931-7.931v16.2L133.1,200h.471l-.069-.069v-16.2l7.931,7.931L149.764,200h.471l8.333-8.333,7.931-7.931v16.2l-.069.069h.471l-.069-.069v-16.2l7.931,7.931L183.1,200h.471l8.333-8.333,7.931-7.931v16.2l-.069.069H200V183.1l-8.1-8.1,8.1-8.1V149.764l-8.1-8.1,8.1-8.1V116.431l-8.1-8.1,8.1-8.1V83.1L191.9,75l8.1-8.1V49.764l-8.1-8.1,8.1-8.1V16.431l-8.1-8.1,8.1-8.1ZM175,141.431l-8.167-8.167v-16.2L174.764,125l8.333,8.333Zm8.167-7.7v16.2L175,158.1l-8.1-8.1,8.333-8.333Zm-166.264-.4L25.236,125l7.931-7.931v16.2L25,141.431ZM33.1,150,25,158.1l-8.167-8.167v-16.2l7.931,7.931Zm117.138-50,8.333-8.333,7.931-7.931v16.2l-8.167,8.167Zm16.2,16.667-8.1,8.1-8.167-8.167V100.4l7.931,7.931ZM166.5,66.6l-8.167,8.167-8.1-8.1,8.333-8.333L166.5,50.4Zm.167.3,8.1,8.1-8.1,8.1-8.1-8.1ZM158.1,75l8.333,8.333-8.1,8.1-8.167-8.167v-16.2Zm0,16.667-8.1,8.1-8.1-8.1,8.1-8.1Zm-16.2,16.667,7.931-7.931v16.2l-8.167,8.167-8.1-8.1Zm-.236-.236L133.5,99.931v-16.2l7.931,7.931L149.764,100Zm8.167-24.833-8.167,8.167-8.1-8.1L141.9,75l7.931-7.931Zm-8.167-8.5L133.5,66.6V50.4l7.931,7.931,8.333,8.333Zm-.236.236-8.1,8.1-8.1-8.1,8.1-8.1ZM116.9,100l8.333-8.333,7.931-7.931v16.2L125,108.1Zm16.2,16.667-8.1,8.1-8.167-8.167V100.4l7.931,7.931Zm.069-50.069L125,74.764l-8.1-8.1,8.333-8.333,7.931-7.931Zm-8.4,8.4,8.333,8.333-8.1,8.1-8.167-8.167v-16.2Zm0,16.667-8.1,8.1-8.1-8.1,8.1-8.1Zm-16.2,16.667L116.5,100.4v16.2l-8.167,8.167-8.1-8.1Zm-.236-.236-8.167-8.167v-16.2l7.931,7.931L116.431,100ZM116.5,83.264l-8.167,8.167-8.1-8.1L108.569,75l7.931-7.931Zm-8.167-8.5L100.167,66.6V50.4l7.931,7.931,8.333,8.333ZM108.1,75,100,83.1,91.9,75l8.1-8.1ZM83.569,100,91.9,91.667l7.931-7.931v16.2L91.667,108.1Zm16.2,16.667-8.1,8.1L83.5,116.6V100.4l7.931,7.931ZM99.833,66.6l-8.167,8.167-8.1-8.1L91.9,58.333,99.833,50.4Zm-8.4,8.4,8.333,8.333-8.1,8.1L83.5,83.264v-16.2Zm0,16.667-8.1,8.1-8.1-8.1,8.1-8.1Zm-16.2,16.667,7.931-7.931v16.2L75,124.764l-8.1-8.1ZM75,108.1l-8.167-8.167v-16.2l7.931,7.931L83.1,100Zm8.167-24.833L75,91.431l-8.1-8.1L75.236,75l7.931-7.931ZM75,74.764,66.833,66.6V50.4l7.931,7.931L83.1,66.667ZM74.764,75l-8.1,8.1-8.1-8.1,8.1-8.1ZM50.236,100l8.333-8.333L66.5,83.736v16.2L58.333,108.1Zm16.2,16.667-8.1,8.1L50.167,116.6V100.4l7.931,7.931ZM66.5,66.6l-8.167,8.167-8.1-8.1,8.333-8.333L66.5,50.4ZM58.1,75l8.333,8.333-8.1,8.1-8.167-8.167v-16.2Zm0,16.667-8.1,8.1-8.1-8.1,8.1-8.1ZM41.9,108.333l7.931-7.931v16.2l-8.167,8.167-8.1-8.1Zm-.236-.236L33.5,99.931v-16.2l7.931,7.931L49.764,100Zm8.167-24.833-8.167,8.167-8.1-8.1L41.9,75l7.931-7.931Zm-8.167-8.5L33.5,66.6V50.4l7.931,7.931,8.333,8.333ZM41.431,75l-8.1,8.1-8.1-8.1,8.1-8.1Zm-8.264-8.4L25,74.764l-8.1-8.1,8.333-8.333L33.167,50.4Zm-8.4,8.4L33.1,83.333l-8.1,8.1-8.167-8.167v-16.2Zm.471,16.667,7.931-7.931v16.2L25,108.1,16.9,100Zm-.471,16.667,8.333,8.333-8.1,8.1L16.833,116.6V100.4Zm.471,0,8.1-8.1,8.1,8.1-8.1,8.1Zm8.264,8.736L41.431,125l8.333,8.333-8.1,8.1L33.5,133.264Zm8.4,24.6,7.931-7.931v16.2L41.667,158.1l-8.1-8.1ZM41.9,125l8.1-8.1,8.1,8.1L50,133.1Zm8.264,8.736,7.931,7.931L66.431,150l-8.1,8.1-8.167-8.167Zm.069-.4L58.569,125l7.931-7.931v16.2l-8.167,8.167Zm8.333-25,8.1-8.1,8.1,8.1-8.1,8.1Zm8.264,8.736L74.764,125l8.333,8.333-8.1,8.1-8.167-8.167Zm8.4,24.6,7.931-7.931v16.2L75,158.1,66.9,150Zm0-16.667,8.1-8.1,8.1,8.1-8.1,8.1Zm8.264,8.736,7.931,7.931L99.764,150l-8.1,8.1L83.5,149.931Zm.069-.4L91.9,125l7.931-7.931v16.2l-8.167,8.167Zm8.333-25,8.1-8.1,8.1,8.1-8.1,8.1Zm8.264,8.736L108.1,125l8.333,8.333-8.1,8.1-8.167-8.167Zm8.4,24.6,7.931-7.931v16.2l-8.167,8.167-8.1-8.1Zm0-16.667,8.1-8.1,8.1,8.1-8.1,8.1Zm8.264,8.736,7.931,7.931L133.1,150l-8.1,8.1-8.167-8.167Zm.069-.4L125.236,125l7.931-7.931v16.2L125,141.431Zm8.333-25,8.1-8.1,8.1,8.1-8.1,8.1Zm8.264,8.736L141.431,125l8.333,8.333-8.1,8.1-8.167-8.167Zm8.4,24.6,7.931-7.931v16.2l-8.167,8.167-8.1-8.1Zm0-16.667,8.1-8.1,8.1,8.1-8.1,8.1Zm8.264,8.736,7.931,7.931L166.431,150l-8.1,8.1-8.167-8.167Zm.069-.4L158.569,125l7.931-7.931v16.2l-8.167,8.167Zm8.333-25,8.1-8.1,8.1,8.1-8.1,8.1Zm8.333,8.333,8.333-8.333,7.931-7.931v16.2L175,124.764ZM175,108.1l-8.167-8.167v-16.2l7.931,7.931L183.1,100Zm-8.1-24.764L175.236,75l7.931-7.931v16.2L175,91.431Zm8.1-8.569L166.833,66.6V50.4l7.931,7.931,8.333,8.333ZM166.9,50l8.333-8.333,7.931-7.931v16.2L175,58.1Zm8.1-8.569-8.167-8.167v-16.2L174.764,25l8.333,8.333Zm-.236.236-8.1,8.1-8.1-8.1,8.1-8.1Zm-8.264-8.4-8.167,8.167-8.1-8.1L158.569,25l7.931-7.931Zm-8.4,8.4L166.431,50l-8.1,8.1-8.167-8.167v-16.2Zm0,16.667-8.1,8.1-8.1-8.1,8.1-8.1Zm-8.264-8.4L141.667,58.1l-8.1-8.1,8.333-8.333,7.931-7.931Zm-8.167-8.5L133.5,33.264v-16.2L141.431,25l8.333,8.333Zm-.236.236-8.1,8.1-8.1-8.1,8.1-8.1Zm-8.264-8.4L125,41.431l-8.1-8.1L125.236,25l7.931-7.931Zm-8.4,8.4L133.1,50,125,58.1l-8.167-8.167v-16.2Zm0,16.667-8.1,8.1-8.1-8.1,8.1-8.1Zm-8.264-8.4L108.333,58.1l-8.1-8.1,8.333-8.333,7.931-7.931Zm-8.167-8.5-8.167-8.167v-16.2L108.1,25l8.333,8.333Zm-.236.236-8.1,8.1-8.1-8.1,8.1-8.1Zm-8.264-8.4-8.167,8.167-8.1-8.1L91.9,25l7.931-7.931Zm-8.4,8.4L99.764,50l-8.1,8.1L83.5,49.931v-16.2Zm0,16.667-8.1,8.1-8.1-8.1,8.1-8.1Zm-8.264-8.4L75,58.1,66.9,50l8.333-8.333,7.931-7.931ZM75,41.431l-8.167-8.167v-16.2L74.764,25,83.1,33.333Zm-.236.236-8.1,8.1-8.1-8.1,8.1-8.1Zm-8.264-8.4-8.167,8.167-8.1-8.1L58.569,25,66.5,17.069Zm-8.4,8.4L66.431,50l-8.1,8.1-8.167-8.167v-16.2Zm0,16.667-8.1,8.1-8.1-8.1,8.1-8.1Zm-8.264-8.4L41.667,58.1l-8.1-8.1L41.9,41.667l7.931-7.931Zm-8.167-8.5L33.5,33.264v-16.2L41.431,25l8.333,8.333Zm-.236.236-8.1,8.1-8.1-8.1,8.1-8.1Zm-8.264-8.4L25,41.431l-8.1-8.1L25.236,25l7.931-7.931Zm-8.4,8.4L33.1,50,25,58.1l-8.167-8.167v-16.2Zm0,16.667-8.1,8.1-8.1-8.1,8.1-8.1Zm0,33.333-8.1,8.1-8.1-8.1,8.1-8.1Zm0,33.333-8.1,8.1-8.1-8.1,8.1-8.1Zm0,33.333-8.1,8.1-8.1-8.1,8.1-8.1Zm.471,0,7.931-7.931v16.2L25,174.764l-8.1-8.1Zm0-16.667,8.1-8.1,8.1,8.1-8.1,8.1ZM33.5,150.4l7.931,7.931,8.333,8.333-8.1,8.1L33.5,166.6Zm8.4,7.931,8.1-8.1,8.1,8.1-8.1,8.1Zm16.667,0L66.5,150.4v16.2l-8.167,8.167-8.1-8.1Zm0-16.667,8.1-8.1,8.1,8.1-8.1,8.1Zm8.264,8.736,7.931,7.931,8.333,8.333-8.1,8.1L66.833,166.6Zm8.4,7.931,8.1-8.1,8.1,8.1-8.1,8.1Zm16.667,0,7.931-7.931v16.2l-8.167,8.167-8.1-8.1Zm0-16.667,8.1-8.1,8.1,8.1-8.1,8.1Zm8.264,8.736,7.931,7.931,8.333,8.333-8.1,8.1-8.167-8.167Zm8.4,7.931,8.1-8.1,8.1,8.1-8.1,8.1Zm16.667,0,7.931-7.931v16.2L125,174.764l-8.1-8.1Zm0-16.667,8.1-8.1,8.1,8.1-8.1,8.1ZM133.5,150.4l7.931,7.931,8.333,8.333-8.1,8.1L133.5,166.6Zm8.4,7.931,8.1-8.1,8.1,8.1-8.1,8.1Zm16.667,0L166.5,150.4v16.2l-8.167,8.167-8.1-8.1Zm0-16.667,8.1-8.1,8.1,8.1-8.1,8.1Zm8.264,8.736,7.931,7.931,8.333,8.333-8.1,8.1-8.167-8.167Zm8.4,7.931,8.1-8.1,8.1,8.1-8.1,8.1Zm0-33.333,8.1-8.1,8.1,8.1-8.1,8.1Zm0-33.333,8.1-8.1,8.1,8.1-8.1,8.1Zm0-33.333,8.1-8.1,8.1,8.1-8.1,8.1Zm0-33.333,8.1-8.1,8.1,8.1-8.1,8.1Zm0-16.667L183.167.4V16.6L175,24.764l-8.1-8.1Zm-8.569-8.1,8.1,8.1-8.1,8.1-8.1-8.1ZM150.167.4,158.1,8.333l8.333,8.333-8.1,8.1L150.167,16.6ZM158.1,25,150,33.1,141.9,25l8.1-8.1ZM141.9,8.333,149.833.4V16.6l-8.167,8.167-8.1-8.1Zm-8.569-8.1,8.1,8.1-8.1,8.1-8.1-8.1ZM116.833.4l7.931,7.931,8.333,8.333-8.1,8.1L116.833,16.6ZM124.764,25l-8.1,8.1-8.1-8.1,8.1-8.1Zm-16.2-16.667L116.5.4V16.6l-8.167,8.167-8.1-8.1ZM100,.236l8.1,8.1-8.1,8.1-8.1-8.1ZM83.5.4l7.931,7.931,8.333,8.333-8.1,8.1L83.5,16.6ZM91.431,25l-8.1,8.1-8.1-8.1,8.1-8.1ZM75.236,8.333,83.167.4V16.6L75,24.764l-8.1-8.1ZM66.667.236l8.1,8.1-8.1,8.1-8.1-8.1ZM50.167.4,58.1,8.333l8.333,8.333-8.1,8.1L50.167,16.6ZM58.1,25,50,33.1,41.9,25,50,16.9ZM41.9,8.333,49.833.4V16.6l-8.167,8.167-8.1-8.1ZM33.333.236l8.1,8.1-8.1,8.1-8.1-8.1ZM16.833.4l7.931,7.931L33.1,16.667l-8.1,8.1L16.833,16.6ZM24.764,25l-8.1,8.1L8.569,25l8.1-8.1ZM8.569,8.333,16.5.4V16.6L8.333,24.764l-8.1-8.1ZM.167,33.264v-16.2L8.1,25l8.333,8.333-8.1,8.1Zm8.4,8.4L16.5,33.736v16.2L8.333,58.1.236,50ZM.167,66.6V50.4L8.1,58.333l8.333,8.333-8.1,8.1Zm8.4,8.4L16.5,67.069v16.2L8.333,91.431l-8.1-8.1ZM.167,99.931v-16.2L8.1,91.667,16.431,100l-8.1,8.1Zm8.4,8.4L16.5,100.4v16.2l-8.167,8.167-8.1-8.1Zm-8.4,24.931v-16.2L8.1,125l8.333,8.333-8.1,8.1Zm8.4,8.4,7.931-7.931v16.2L8.333,158.1.236,150ZM.167,166.6V150.4L8.1,158.333l8.333,8.333-8.1,8.1Zm.069,16.736L8.569,175l7.931-7.931v16.2l-8.167,8.167Zm16.431,16.431-8.1-8.1,8.1-8.1,8.1,8.1ZM25,191.431l-8.167-8.167v-16.2L24.764,175l8.333,8.333Zm8.333-8.333-8.1-8.1,8.1-8.1,8.1,8.1Zm.236.236L41.9,175l7.931-7.931v16.2l-8.167,8.167ZM50,199.764l-8.1-8.1,8.1-8.1,8.1,8.1Zm8.333-8.333-8.167-8.167v-16.2L58.1,175l8.333,8.333Zm8.333-8.333-8.1-8.1,8.1-8.1,8.1,8.1Zm.236.236L75.236,175l7.931-7.931v16.2L75,191.431Zm16.431,16.431-8.1-8.1,8.1-8.1,8.1,8.1Zm8.333-8.333L83.5,183.264v-16.2L91.431,175l8.333,8.333ZM100,183.1,91.9,175l8.1-8.1,8.1,8.1Zm.236.236L108.569,175l7.931-7.931v16.2l-8.167,8.167Zm16.431,16.431-8.1-8.1,8.1-8.1,8.1,8.1ZM125,191.431l-8.167-8.167v-16.2L124.764,175l8.333,8.333Zm8.333-8.333-8.1-8.1,8.1-8.1,8.1,8.1Zm.236.236L141.9,175l7.931-7.931v16.2l-8.167,8.167ZM150,199.764l-8.1-8.1,8.1-8.1,8.1,8.1Zm8.333-8.333-8.167-8.167v-16.2L158.1,175l8.333,8.333Zm8.333-8.333-8.1-8.1,8.1-8.1,8.1,8.1Zm.236.236L175.236,175l7.931-7.931v16.2L175,191.431Zm16.431,16.431-8.1-8.1,8.1-8.1,8.1,8.1Zm16.431-16.431-8.1,8.1-8.167-8.167v-16.2L191.431,175Zm.069-16.736-8.167,8.167-8.1-8.1,8.333-8.333,7.931-7.931Zm-.069-16.6-8.1,8.1-8.167-8.167v-16.2l7.931,7.931Zm.069-16.736-8.167,8.167-8.1-8.1L191.9,125l7.931-7.931Zm-.069-16.6-8.1,8.1L183.5,116.6V100.4l7.931,7.931Zm.069-16.736-8.167,8.167-8.1-8.1,8.333-8.333,7.931-7.931Zm-.069-16.6-8.1,8.1L183.5,83.264v-16.2L191.431,75Zm.069-16.736-8.167,8.167-8.1-8.1,8.333-8.333,7.931-7.931ZM199.764,50l-8.1,8.1L183.5,49.931v-16.2l7.931,7.931Zm.069-16.736-8.167,8.167-8.1-8.1L191.9,25l7.931-7.931Zm-.069-16.6-8.1,8.1L183.5,16.6V.4l7.931,7.931Z" fill="#BE8261" opacity="0.3"/>
</svg>
