<svg id="settings" xmlns="http://www.w3.org/2000/svg" width="38" height="38" viewBox="0 0 38 38">
  <path id="Path_3655" data-name="Path 3655" d="M41.145,21.623a2.45,2.45,0,0,1-1.109-4.137,2.45,2.45,0,0,0-2.377-4.116,2.45,2.45,0,0,1-3.029-3.029,2.441,2.441,0,0,0-1.963-3.1c-1.288-.226-3.023,1.652-4.313,1.436a2.432,2.432,0,0,1-1.977-1.823,2.45,2.45,0,0,0-4.753,0,2.45,2.45,0,0,1-4.138,1.109,2.45,2.45,0,0,0-4.116,2.377,2.45,2.45,0,0,1-3.029,3.029,2.45,2.45,0,0,0-2.377,4.117,2.45,2.45,0,0,1-1.109,4.137,2.45,2.45,0,0,0,0,4.753,2.432,2.432,0,0,1,1.823,1.978c.216,1.29-1.663,3.025-1.436,4.313a2.441,2.441,0,0,0,3.1,1.963,2.45,2.45,0,0,1,3.029,3.029,2.45,2.45,0,0,0,4.116,2.377,2.45,2.45,0,0,1,4.138,1.109,2.45,2.45,0,0,0,4.753,0,2.45,2.45,0,0,1,4.137-1.109,2.45,2.45,0,0,0,4.117-2.377,2.45,2.45,0,0,1,3.029-3.029,2.45,2.45,0,0,0,2.377-4.117,2.45,2.45,0,0,1,1.109-4.137,2.45,2.45,0,0,0,0-4.753ZM24,32.107A8.107,8.107,0,1,1,32.107,24,8.107,8.107,0,0,1,24,32.107Z" transform="translate(-5 -5)" fill="#fff"/>
</svg>
