<svg xmlns="http://www.w3.org/2000/svg" width="28.765" height="28.765" viewBox="0 0 28.765 28.765">
  <g id="Group_3566" data-name="Group 3566" transform="translate(0 0)">
    <path id="Path_3657" data-name="Path 3657" d="M187.682,2.254a7.671,7.671,0,0,0-10.848,0l-4.28,4.279a9.483,9.483,0,0,1,1.025-.053,9.9,9.9,0,0,1,3.134.5l2.425-2.425a4.41,4.41,0,0,1,6.238,6.236l-4.745,4.746a4.415,4.415,0,0,1-7.178-1.387,2.187,2.187,0,0,0-1.433.641l-1.264,1.266a7.674,7.674,0,0,0,12.18,1.787l4.746-4.747A7.671,7.671,0,0,0,187.682,2.254Z" transform="translate(-161.163 -0.008)" fill="#fff"/>
    <path id="Path_3658" data-name="Path 3658" d="M16.407,168.057a9.837,9.837,0,0,1-3.169-.521L10.8,169.978A4.41,4.41,0,1,1,4.56,163.74l4.745-4.745a4.416,4.416,0,0,1,7.178,1.389,2.181,2.181,0,0,0,1.435-.641l1.262-1.264A7.676,7.676,0,0,0,7,156.689l-4.745,4.747A7.67,7.67,0,1,0,13.1,172.284l4.273-4.273c-.319.03-.641.046-.966.046Z" transform="translate(-0.007 -145.766)" fill="#fff"/>
  </g>
</svg>
