<svg id="Group_3570" data-name="Group 3570" xmlns="http://www.w3.org/2000/svg" width="38" height="38" viewBox="0 0 38 38">
  <path id="Path_3661" data-name="Path 3661" d="M34.1,20.065A14.166,14.166,0,1,0,48.27,34.232,14.181,14.181,0,0,0,34.1,20.065Zm0,20.732a6.566,6.566,0,0,1,0-13.132,6.566,6.566,0,0,1,0,13.132Z" transform="translate(-15.124 -15.211)" fill="none"/>
  <path id="Path_3662" data-name="Path 3662" d="M23.973,5A19,19,0,1,0,43,24.027,19,19,0,0,0,23.973,5Zm0,31.693A12.666,12.666,0,1,1,36.64,24.027,12.713,12.713,0,0,1,23.973,36.693Z" transform="translate(-5 -5)" fill="#fff"/>
  <path id="Path_3663" data-name="Path 3663" d="M40.513,36.159a4.48,4.48,0,1,0,4.48,4.481A4.488,4.488,0,0,0,40.513,36.159Z" transform="translate(-21.543 -21.61)" fill="#fff"/>
</svg>
