<svg xmlns="http://www.w3.org/2000/svg" width="44.329" height="36.312" viewBox="0 0 44.329 36.312">
  <g id="noun_social_media_icon_2255036" data-name="noun_social media icon_2255036" transform="translate(-205.694 -140.216)">
    <path id="Path_3668" data-name="Path 3668" d="M31.694,66.536A19.766,19.766,0,0,0,41.232,64.9a17.31,17.31,0,0,0,3.822-2.3,9.186,9.186,0,0,1-3.952-.989,8.96,8.96,0,0,1-4.363-4.879c-.189-.5-.189-.5.343-.455a7.348,7.348,0,0,0,3.356-.21,9.429,9.429,0,0,1-2.157-.827,9.2,9.2,0,0,1-4.944-7.806c-.037-.4.076-.446.45-.268a8.993,8.993,0,0,0,3.591.974c-.584-.519-1.095-.949-1.548-1.395a9.357,9.357,0,0,1-1.439-10.36c.227-.454.3-.454.619-.1a25.919,25.919,0,0,0,15.948,8.9c.645.121,1.362.121,2.023.276.454.064.5-.155.443-.5a9.148,9.148,0,0,1,15.3-8.227,1.025,1.025,0,0,0,1.005.244,17.093,17.093,0,0,0,4.834-1.9.9.9,0,0,0,.39-.252A8.975,8.975,0,0,1,71.089,39.9a19.324,19.324,0,0,0,4.929-1.281c.036.212-.124.342-.227.519A18.69,18.69,0,0,1,72,43.013a.752.752,0,0,0-.342.729,26.636,26.636,0,0,1-6.305,17.867,24.631,24.631,0,0,1-15.277,8.559,25.955,25.955,0,0,1-18.189-3.534A.267.267,0,0,0,31.694,66.536Z" transform="translate(174 106)" fill="#fff" fill-rule="evenodd"/>
  </g>
</svg>
