<svg id="noun_Wallet_332327" xmlns="http://www.w3.org/2000/svg" width="38" height="30.4" viewBox="0 0 38 30.4">
  <g id="Group_3564" data-name="Group 3564">
    <path id="Path_3656" data-name="Path 3656" d="M38.1,4H3.9A1.8,1.8,0,0,0,2,5.9V32.5a1.8,1.8,0,0,0,1.9,1.9H38.1A1.8,1.8,0,0,0,40,32.5V23H26.7a3.811,3.811,0,0,1-3.8-3.8h0a3.811,3.811,0,0,1,3.8-3.8H40V5.9A1.8,1.8,0,0,0,38.1,4Z" transform="translate(-2 -4)" fill="#fff"/>
    <circle id="Ellipse_21" data-name="Ellipse 21" cx="1.503" cy="1.503" r="1.503" transform="translate(23.33 13.697)" fill="#fff"/>
  </g>
</svg>
